/* XPM */
static char *result[] = {
/* columns rows colors chars-per-pixel */
"25 25 14 1 ",
"  c black",
". c #272720",
"X c #474733",
"o c #5D5D44",
"O c #7E7E5E",
"+ c #999974",
"@ c #9D9D77",
"# c #A2A27C",
"$ c #AFAF85",
"% c #BABA8D",
"& c #BCBC8E",
"* c #C8C898",
"= c #D0D09E",
"- c #D1D19F",
/* pixels */
"                         ",
"                         ",
"                         ",
"                         ",
"                         ",
"            X=+          ",
"            @-+          ",
"         .o#--+          ",
"         &----+          ",
"         %*$@-+          ",
"            O-+          ",
"            O-+          ",
"            O-+          ",
"            O-+          ",
"            O-+          ",
"            O-+          ",
"            O-+          ",
"            O-+          ",
"            O-+          ",
"            O-+          ",
"                         ",
"                         ",
"                         ",
"                         ",
"                         "
};
