/* XPM */
static char *result[] = {
/* columns rows colors chars-per-pixel */
"25 25 49 1 ",
"  c black",
". c gray5",
"X c gray6",
"o c #16160B",
"O c #1C1C12",
"+ c #222219",
"@ c #272720",
"# c #323220",
"$ c #3D3D2A",
"% c #454530",
"& c #474733",
"* c #454535",
"= c #4F4F3A",
"- c #5C5C45",
"; c #5F5F46",
": c #606048",
"> c #65654B",
", c #6E6E53",
"< c #7A7A5C",
"1 c #7B7B5C",
"2 c #868664",
"3 c #878765",
"4 c #91916E",
"5 c #949470",
"6 c #959570",
"7 c #9D9D77",
"8 c #A5A57D",
"9 c #A7A77D",
"0 c #AAAA80",
"q c #ADAD83",
"w c #AFAF83",
"e c #B0B085",
"r c #B0B086",
"t c #B6B68A",
"y c #B6B68B",
"u c #B8B88C",
"i c #BFBF91",
"p c #C4C495",
"a c #C6C697",
"s c #C9C998",
"d c #CACA9A",
"f c #CDCD9C",
"g c #CECE9C",
"h c #CECE9D",
"j c #CFCF9D",
"k c #CFCF9E",
"l c #D0D09E",
"z c #D0D09F",
"x c #D1D19F",
/* pixels */
"                         ",
"                         ",
"                         ",
"                         ",
"                         ",
"         *8akde;         ",
"        =sxxxxxf>        ",
"        qxy:@-txu        ",
"       .fh#   $klo       ",
"               pzo       ",
"              +ji        ",
"              4x3        ",
"             ,hw.        ",
"            <geO         ",
"           5l9X          ",
"         o0x6            ",
"        orl2             ",
"        7x6              ",
"       %hxxxxxxxx&       ",
"       1xxxxxxxxx&       ",
"                         ",
"                         ",
"                         ",
"                         ",
"                         "
};
