/* XPM */
static char *result[] = {
/* columns rows colors chars-per-pixel */
"25 25 56 1 ",
"  c black",
". c gray6",
"X c #161606",
"o c #2A2A1B",
"O c #272720",
"+ c #323220",
"@ c #323227",
"# c #353525",
"$ c #424231",
"% c #454530",
"& c #474734",
"* c #4D4D39",
"= c #4F4F3A",
"- c #54543E",
"; c #565641",
": c #585840",
"> c #5C5C45",
", c #606048",
"< c #6B6B50",
"1 c #6A6A51",
"2 c #79795B",
"3 c #7C7C5E",
"4 c #8E8E6B",
"5 c #90906D",
"6 c #93936E",
"7 c #969671",
"8 c #9A9A76",
"9 c #9D9D77",
"0 c #9E9E77",
"q c #A7A77F",
"w c #A9A97F",
"e c #AAAA80",
"r c #ADAD83",
"t c #AFAF85",
"y c #B1B186",
"u c #B2B287",
"i c #B6B689",
"p c #B7B78B",
"a c #B9B98C",
"s c #BABA8D",
"d c #BBBB8D",
"f c #BEBE90",
"g c #BEBE91",
"h c #C2C294",
"j c #C3C394",
"k c #C4C495",
"l c #C6C697",
"z c #C7C797",
"x c #C8C898",
"c c #C9C998",
"v c #CACA9A",
"b c #CBCB9A",
"n c #CDCD9B",
"m c #CFCF9E",
"M c #D0D09F",
"N c #D1D19F",
/* pixels */
"                         ",
"                         ",
"                         ",
"                         ",
"                         ",
"         %qxmk9O         ",
"        +hNNNNNaX        ",
"        0Ni;O1lN3        ",
"        gN&   5N8        ",
"              7N4        ",
"            @2vv$        ",
"           6NNz,         ",
"           6NNNd%        ",
"            O,tNp        ",
"              .jN*       ",
"               yN<       ",
"       #Nz.   olN-       ",
"        sNr:o>uNf        ",
"        ,nNNNNNb,        ",
"         -exMcw=         ",
"                         ",
"                         ",
"                         ",
"                         ",
"                         "
};
