/* XPM */
static char *result[] = {
/* columns rows colors chars-per-pixel */
"25 25 30 1 ",
"  c black",
". c gray5",
"X c gray6",
"o c #2E2E21",
"O c #454530",
"+ c #51513D",
"@ c #636349",
"# c #66664A",
"$ c #66664E",
"% c #737355",
"& c #747457",
"* c #808060",
"= c #858565",
"- c #91916E",
"; c #989871",
": c #A1A179",
"> c #A3A37C",
", c #A8A880",
"< c #A8A881",
"1 c #B4B488",
"2 c #B4B489",
"3 c #BABA8D",
"4 c #C2C294",
"5 c #C2C295",
"6 c #C8C898",
"7 c #CDCD9B",
"8 c #CFCF9D",
"9 c #CFCF9E",
"0 c #D0D09F",
"q c #D1D19F",
/* pixels */
"                         ",
"                         ",
"                         ",
"                         ",
"                         ",
"             :q%         ",
"            &qq%         ",
"           O69q%         ",
"          .25,q%         ",
"          -0$>q%         ",
"         @8; >q%         ",
"        o43X >q%         ",
"        <7+  >q%         ",
"       *q=   >q%         ",
"       1qqqqqqqqq#       ",
"       1qqqqqqqqq#       ",
"             >q%         ",
"             >q%         ",
"             >q%         ",
"             >q%         ",
"                         ",
"                         ",
"                         ",
"                         ",
"                         "
};
