/* XPM */
static char *result[] = {
/* columns rows colors chars-per-pixel */
"25 25 55 1 ",
"  c black",
". c #16160B",
"X c #2B2B1D",
"o c #2E2E21",
"O c #353523",
"+ c #3D3D2A",
"@ c #3A3A2C",
"# c #3D3D2C",
"$ c #40402F",
"% c #454530",
"& c #4F4F3A",
"* c #565641",
"= c #585840",
"- c #5B5B44",
"; c #5C5C45",
": c #636349",
"> c #66664A",
", c #66664E",
"< c #6B6B4F",
"1 c #6A6A50",
"2 c #737355",
"3 c #78785A",
"4 c #79795B",
"5 c #80805F",
"6 c #878765",
"7 c #8C8C69",
"8 c #93936E",
"9 c #979772",
"0 c #979773",
"q c #9E9E77",
"w c #A0A07A",
"e c #A2A27A",
"r c #A7A77E",
"t c #A7A77F",
"y c #ABAB82",
"u c #ACAC83",
"i c #AEAE84",
"p c #AFAF85",
"a c #B0B086",
"s c #B7B78B",
"d c #B9B98C",
"f c #BABA8D",
"g c #BEBE8F",
"h c #C0C093",
"j c #C4C495",
"k c #C6C696",
"l c #C7C797",
"z c #C8C898",
"x c #CBCB9A",
"c c #CBCB9B",
"v c #CCCC9B",
"b c #CDCD9B",
"n c #CFCF9D",
"m c #D0D09E",
"M c #D1D19F",
/* pixels */
"                         ",
"                         ",
"                         ",
"                         ",
"                         ",
"        +MMMMMMMy        ",
"        *MMMMMMMy        ",
"        1M0              ",
"        4M7              ",
"        6M5              ",
"        8M9scxi*         ",
"        qMMMMMMb>        ",
"        rmw-o,dMh        ",
"              OlM;       ",
"               uM3       ",
"               aM2       ",
"       @Mz.   %cM$       ",
"        fMp=X<gMi        ",
"        :vMMMMMj%        ",
"         &tjnke#         ",
"                         ",
"                         ",
"                         ",
"                         ",
"                         "
};
