/* XPM */
static char *result[] = {
/* columns rows colors chars-per-pixel */
"25 25 65 1 ",
"  c black",
". c gray5",
"X c #16160B",
"o c #1C1C12",
"O c #2A2A1B",
"+ c #2B2B1D",
"@ c #272720",
"# c #323220",
"$ c #353523",
"% c #353525",
"& c #383829",
"* c #3D3D2A",
"= c #40402D",
"- c #454535",
"; c #4B4B35",
": c #494937",
"> c #4D4D38",
", c #4F4F3A",
"< c #4F4F3B",
"1 c #53533C",
"2 c #585840",
"3 c #5A5A43",
"4 c #5B5B44",
"5 c #5D5D44",
"6 c #65654B",
"7 c #6B6B4F",
"8 c #6E6E53",
"9 c #7B7B5C",
"0 c #838362",
"q c #878765",
"w c #8F8F6A",
"e c #8F8F6D",
"r c #91916F",
"t c #979774",
"y c #9D9D77",
"u c #A1A17A",
"i c #A7A77E",
"p c #AAAA80",
"a c #ACAC82",
"s c #ADAD83",
"d c #AFAF85",
"f c #B2B287",
"g c #B2B288",
"h c #B4B488",
"j c #B6B68B",
"k c #B7B78B",
"l c #B9B98D",
"z c #BBBB8D",
"x c #B9B98E",
"c c #BEBE8F",
"v c #C2C292",
"b c #C2C295",
"n c #C7C797",
"m c #C8C898",
"M c #C9C998",
"N c #CACA9A",
"B c #CBCB9A",
"V c #CBCB9B",
"C c #CCCC9B",
"Z c #CDCD9D",
"A c #CECE9C",
"S c #CECE9D",
"D c #CFCF9E",
"F c #D0D09E",
"G c #D1D19F",
/* pixels */
"                         ",
"                         ",
"                         ",
"                         ",
"                         ",
"          9xCCf3         ",
"         wGGGGGN:        ",
"        :SGr$-pGp        ",
"        tGu   @Am.       ",
"        xG1              ",
"        NM<sVZf4         ",
"       OGMNGGGGV5        ",
"       =GGz8@3kGl        ",
"       *Gvo   &NG>       ",
"       XFv     gG8       ",
"        bD#    hG7       ",
"        iGe   &BF%       ",
"        6GA0+2jGd        ",
"         yGGGGGn;        ",
"          qcSNa,         ",
"                         ",
"                         ",
"                         ",
"                         ",
"                         "
};
