/* XPM */
static char *result[] = {
/* columns rows colors chars-per-pixel */
"25 25 35 1 ",
"  c black",
". c gray6",
"X c #16160B",
"o c #272720",
"O c #323220",
"+ c #353525",
"@ c #454530",
"# c #56563D",
"$ c #55553F",
"% c #5D5D44",
"& c #636349",
"* c #65654C",
"= c #69694E",
"- c #78785A",
"; c #7C7C5E",
": c #848464",
"> c #878765",
", c #8F8F6D",
"< c #93936E",
"1 c #9D9D77",
"2 c #A0A07A",
"3 c #A5A57D",
"4 c #A8A87F",
"5 c #B0B086",
"6 c #B6B68B",
"7 c #B8B88C",
"8 c #BCBC8F",
"9 c #C1C192",
"0 c #C2C293",
"q c #C7C797",
"w c #CBCB9A",
"e c #CBCB9B",
"r c #CDCD9C",
"t c #D0D09F",
"y c #D1D19F",
/* pixels */
"                         ",
"                         ",
"                         ",
"                         ",
"                         ",
"       Oyyyyyyyyy=       ",
"       Oyyyyyyyyy%       ",
"              Xq0        ",
"              ;y<        ",
"              6t@        ",
"             $y5         ",
"             2y-         ",
"            owq.         ",
"            >y1          ",
"            8y#          ",
"           &y7           ",
"           4y:           ",
"          +reo           ",
"          ,y3            ",
"          9y*            ",
"                         ",
"                         ",
"                         ",
"                         ",
"                         "
};
