/* XPM */
static char *result[] = {
/* columns rows colors chars-per-pixel */
"25 25 69 1 ",
"  c black",
". c #161606",
"X c #16160B",
"o c #2A2A1B",
"O c #2E2E21",
"+ c #323220",
"@ c #323227",
"# c #3A3A2C",
"$ c #424231",
"% c #454535",
"& c #474734",
"* c #4B4B35",
"= c #494937",
"- c #4D4D38",
"; c #4F4F3A",
": c #55553F",
"> c #565641",
", c #5A5A42",
"< c #5B5B44",
"1 c #5F5F46",
"2 c #636349",
"3 c #65654B",
"4 c #65654C",
"5 c #6A6A50",
"6 c #6B6B50",
"7 c #6A6A51",
"8 c #737355",
"9 c #77775A",
"0 c #79795B",
"q c #838362",
"w c #858565",
"e c #8E8E6B",
"r c #92926D",
"t c #93936F",
"y c #9B9B75",
"u c #9D9D77",
"i c #9F9F78",
"p c #A0A078",
"a c #A3A37C",
"s c #A7A77E",
"d c #AAAA80",
"f c #AFAF85",
"g c #B1B185",
"h c #B0B086",
"j c #B2B288",
"k c #B8B88C",
"l c #B9B98C",
"z c #BEBE8F",
"x c #BEBE90",
"c c #BEBE91",
"v c #C0C092",
"b c #C2C293",
"n c #C2C294",
"m c #C2C295",
"M c #C4C495",
"N c #C6C696",
"B c #C8C898",
"V c #C9C998",
"C c #C9C999",
"Z c #CACA9A",
"A c #CBCB9A",
"S c #CDCD9B",
"D c #CDCD9D",
"F c #CECE9C",
"G c #CECE9D",
"H c #CFCF9E",
"J c #D0D09E",
"K c #D0D09F",
"L c #D1D19F",
/* pixels */
"                         ",
"                         ",
"                         ",
"                         ",
"                         ",
"         #pbFMs&         ",
"        @mLLLLLC*        ",
"        rLv3o<lLp        ",
"        aLq   6Lh        ",
"        eLi   eLu        ",
"        OnJu-tGB%        ",
"         =kLLLc,         ",
"         7vLLLN0         ",
"        8GGy;rSLw        ",
"        MK7   >SA+       ",
"       &Lz     gL5       ",
"       $LZo   .vL4       ",
"        xLj1o:dLBX       ",
"        4DLLLLLH9        ",
"         :dVKZf2         ",
"                         ",
"                         ",
"                         ",
"                         ",
"                         "
};
