/* XPM */
static char *_7e3ce115e244542b121150587ab36c1JTs3ZkmYfeMSfX66[] = {
/* columns rows colors chars-per-pixel */
"25 25 241 2 ",
"   c None",
".  c #787675",
"X  c #797776",
"o  c #838180",
"O  c #868584",
"+  c #878684",
"@  c #888785",
"#  c #898886",
"$  c #8A8887",
"%  c #8A8987",
"&  c #8C8A89",
"*  c #8D8B8A",
"=  c #908E8D",
"-  c #918F8E",
";  c #92908F",
":  c #939190",
">  c #949292",
",  c #959392",
"<  c #959493",
"1  c #979594",
"2  c #989694",
"3  c #989796",
"4  c #9A9896",
"5  c #9A9996",
"6  c #9A9997",
"7  c #9B9997",
"8  c #999898",
"9  c #9B9A98",
"0  c #9B9A9A",
"q  c #9B9B9A",
"w  c #9C9B98",
"e  c #9D9B9A",
"r  c #9E9D9C",
"t  c #A09F9E",
"y  c #A1A09E",
"u  c #A3A19F",
"i  c #A3A1A0",
"p  c #A3A2A0",
"a  c #A3A3A2",
"s  c #A4A2A0",
"d  c #A4A2A1",
"f  c #A6A4A2",
"g  c #A7A5A3",
"h  c #A5A5A5",
"j  c #A7A6A5",
"k  c #AAA7A5",
"l  c #A9A7A6",
"z  c #AAA8A6",
"x  c #A9A8A8",
"c  c #A9A9A9",
"v  c #AAA8A8",
"b  c #AAAAAA",
"n  c gray67",
"m  c #AEACAA",
"M  c #AFACAA",
"N  c #AFADAB",
"B  c #ADADAC",
"V  c #AFAEAC",
"C  c #AEAEAE",
"Z  c #B0AEAD",
"A  c #B0AFAD",
"S  c #B2AFAD",
"D  c #B0AFAF",
"F  c #B2B0AE",
"G  c #B3B1AE",
"H  c #B3B1AF",
"J  c gray69",
"K  c #B1B0B0",
"L  c #B1B1B0",
"P  c #B1B1B1",
"I  c #B2B1B1",
"U  c #B3B2B0",
"Y  c #B2B2B1",
"T  c #B2B2B2",
"R  c gray70",
"E  c #B4B2B0",
"W  c #B4B2B1",
"Q  c #B5B3B1",
"!  c #B3B4B3",
"~  c #B6B5B3",
"^  c gray71",
"/  c #B6B5B5",
"(  c #B7B6B4",
")  c #B7B7B7",
"_  c #BAB8B5",
"`  c #B8B8B7",
"'  c #BAB8B6",
"]  c #BAB9B7",
"[  c #BBB9B7",
"{  c #BCB9B7",
"}  c #BCBAB7",
"|  c #B9B8B8",
" . c #BBB9B8",
".. c #BABAB9",
"X. c gray73",
"o. c #BBBABA",
"O. c #BCBAB8",
"+. c #BDBBB9",
"@. c #BCBBBA",
"#. c #BDBCBB",
"$. c #BEBCBA",
"%. c #BFBDBB",
"&. c #BCBCBC",
"*. c gray74",
"=. c #BDBEBD",
"-. c #C0BEBC",
";. c #C1BFBC",
":. c #C2BFBD",
">. c #C2C0BD",
",. c #C3C1BF",
"<. c #C0C0C0",
"1. c #C1C1C1",
"2. c #C2C1C0",
"3. c #C1C1C2",
"4. c #C4C2C0",
"5. c #C5C2C0",
"6. c #C5C3C0",
"7. c #C6C4C1",
"8. c #C7C4C2",
"9. c gray77",
"0. c #C5C5C5",
"q. c #C6C4C5",
"w. c #C7C6C5",
"e. c #C8C6C5",
"r. c #CAC7C5",
"t. c #CAC8C7",
"y. c #CCC9C7",
"u. c #C7C8C8",
"i. c #C8C8C8",
"p. c gray79",
"a. c #CACACA",
"s. c #CBCACA",
"d. c #CACBCB",
"f. c #CBCBCB",
"g. c #CDCAC8",
"h. c #CCCAC9",
"j. c #CBCCCC",
"k. c gray80",
"l. c #CDCCCC",
"z. c #CDCDCD",
"x. c #CECECC",
"c. c #CECECD",
"v. c #CECECE",
"b. c #CFCECE",
"n. c #CECFCE",
"m. c #CFCECF",
"M. c gray81",
"N. c #D1CECC",
"B. c #D3D0CD",
"V. c #D0D0D0",
"C. c #D1D1D0",
"Z. c #D2D2D2",
"A. c #D3D3D2",
"S. c #D4D1D0",
"D. c #D5D3D0",
"F. c #D5D3D1",
"G. c #D4D3D3",
"H. c #D7D3D2",
"J. c #D3D4D3",
"K. c #D7D5D2",
"L. c #D7D5D3",
"P. c gray83",
"I. c #D7D5D5",
"U. c #D7D6D4",
"Y. c #D6D6D5",
"T. c gray84",
"R. c #D7D6D6",
"E. c #D7D7D7",
"W. c #D9D7D4",
"Q. c #D8D7D5",
"!. c #DAD7D5",
"~. c #D9D8D5",
"^. c #D9D8D7",
"/. c #DAD8D6",
"(. c #DCDAD7",
"). c #D8D7D8",
"_. c #D8D8D8",
"`. c gray85",
"'. c #DAD9D9",
"]. c #DADAD9",
"[. c #DADADA",
"{. c #DCDBDB",
"}. c #DCDCDB",
"|. c #DCDBDC",
" X c gainsboro",
".X c #DDDCDC",
"XX c #DDDDDC",
"oX c #DDDCDD",
"OX c #DFDEDC",
"+X c #DDDDDE",
"@X c gray87",
"#X c #DEDFDE",
"$X c #DFDFDF",
"%X c #E1DEDB",
"&X c #E0DFDF",
"*X c #DFDFE0",
"=X c gray88",
"-X c #E1E1E1",
";X c #E2E1E1",
":X c #E2E1E2",
">X c #E2E2E2",
",X c gray89",
"<X c #E4E5E4",
"1X c gray90",
"2X c #E6E6E5",
"3X c #E6E6E6",
"4X c #E6E7E7",
"5X c #E7E7E7",
"6X c #E7E8E7",
"7X c gray91",
"8X c #EAEAEA",
"9X c #EBEBEA",
"0X c gray92",
"qX c #ECEBEB",
"wX c #ECECEC",
"eX c #EDECEC",
"rX c #ECEDED",
"tX c gray93",
"yX c #EEEDED",
"uX c #EEEDEE",
"iX c #EEEEEE",
"pX c #EFEEEE",
"aX c #EFEFEE",
"sX c #F0F0EF",
"dX c #F6F3EF",
"fX c #F1F0F0",
"gX c #F1F1F0",
"hX c gray95",
"jX c #F2F3F3",
"kX c #F3F3F3",
"lX c #F4F3F3",
"zX c #F5F5F4",
"xX c gray96",
"cX c #F6F6F5",
"vX c #F6F6F6",
"bX c #F8F8F8",
"nX c #F9F8F8",
"mX c #F9F9F9",
"MX c #FDFDFD",
"NX c #FEFEFE",
"BX c white",
/* pixels */
"                                                  ",
"                                                  ",
"                                                  ",
"                    >.E ~ E -.                    ",
"            N.F.F.4.+.yXMXsX-.,.H.K.B.            ",
"          r.U ^.h.D +.vXmXvX4.z t.P.+.'           ",
"          m XXMXhX{.C.4X1X4XP.N.hXMXsX' B.        ",
"          f :XvX:Xp.j.v.J.m.j.p.=XhXlXD y.        ",
"          l U :X*.N.yXvXMXmXyXV.*.`.X.0 OX        ",
"      ^.8.a J j.j.iX{.B 0 n `.yXj.f.B e ,.^.      ",
"      H 0.C.XX&.=X*Xr # 1 % 0 XX:X&.`.C.r.H       ",
"      a aX2X:XX.0Xv.: 2.%X8.> p.yX*.:X,XsXs       ",
"      4 vX+XXX` eXl.y ^.lX(.u t.eXX.|.*XlXw       ",
"      2 U p._.^ 2XP.A +.B.-.A P.4X) P.f.U 2       ",
"      } * X a <.^.6Xv.' E ' l.6X`.2.h X * _       ",
"        !.e ^ 0.C %XaX9X6X9XyX:XU 2.0.s 4.        ",
"          g h.XX*.U C.`.|.`.C.U X.+X%Xx h.        ",
"          s n P.-.n n T U ! n h ` T.~ - P.        ",
"          } - 2 > o q M.m.V.t O % 2 # A           ",
"            y.G E z , 0.1Xu.1 m X.D }             ",
"                  ^.w O # O 4 !.                  ",
"                      -.' -.                      ",
"                                                  ",
"                                                  ",
"                                                  "
};
