/* XPM */
static char *c17dbc6683254bf6be8b2686e22622abKwYa2jBNAJ0BsiN5[] = {
/* columns rows colors chars-per-pixel */
"25 25 106 2 ",
"   c None",
".  c #1A1B13",
"X  c #1A1B14",
"o  c #191916",
"O  c #191917",
"+  c #1A1917",
"@  c #191A16",
"#  c #191B16",
"$  c #1A1A17",
"%  c #1B1B17",
"&  c #1B1C16",
"*  c #191918",
"=  c #191A18",
"-  c #1A1A18",
";  c #1B1A18",
":  c #1B1B18",
">  c #1A1A19",
",  c #1B1A19",
"<  c #1B1B19",
"1  c #1A191A",
"2  c #1A191B",
"3  c gray10",
"4  c #1B1A1A",
"5  c #1A1B1A",
"6  c #1B1B1A",
"7  c #1A1A1B",
"8  c #1A1B1B",
"9  c #1B1B1B",
"0  c #1C1B18",
"q  c #1C1B19",
"w  c #1C1A1A",
"e  c #1C1B1A",
"r  c #1C1A1B",
"t  c #1C1B1B",
"y  c #1B1C18",
"u  c #1B1C19",
"i  c #1B1C1A",
"p  c #1B1C1B",
"a  c #1C1C1A",
"s  c #1C1C1B",
"d  c #1D1D1B",
"f  c #1E1D1B",
"g  c #1F1F1B",
"h  c #1A1A1C",
"j  c #1B1B1C",
"k  c #1B1A1D",
"l  c #1B1B1D",
"z  c #1B1B1E",
"x  c #1C1B1C",
"c  c #1C1B1D",
"v  c gray11",
"b  c #1D1D1C",
"n  c #1C1C1D",
"m  c #1D1D1D",
"M  c #1E1D1C",
"N  c #1C1C1F",
"B  c #201F17",
"V  c #212216",
"C  c #242415",
"Z  c #232319",
"A  c #21211B",
"S  c #22211A",
"D  c #23211A",
"F  c #22211B",
"G  c #23231A",
"H  c #22221B",
"J  c #23231B",
"K  c #252519",
"L  c #20201D",
"P  c #20211D",
"I  c #21211D",
"U  c #22211D",
"Y  c #23211D",
"T  c #21221C",
"R  c #20221D",
"E  c #23221C",
"W  c #23231D",
"Q  c #20211E",
"!  c #21221F",
"~  c #22221E",
"^  c #23221E",
"/  c #23221F",
"(  c #24231F",
")  c #25261E",
"_  c #242521",
"`  c #262721",
"'  c #242522",
"]  c #262522",
"[  c #252622",
"{  c #282920",
"}  c #292921",
"|  c #292822",
" . c #282922",
".. c #292824",
"X. c #282825",
"o. c #292925",
"O. c #292826",
"+. c #292926",
"@. c #292927",
"#. c #2C2D26",
"$. c #2E2E27",
"%. c #292928",
"&. c #2D2D29",
"*. c #2D2E28",
"=. c #2E2F28",
"-. c #2F2F28",
/* pixels */
"                                                  ",
"                                                  ",
"                                                  ",
"          O.O.%.O.O.O.%.O.=.                      ",
"        ( + ; h ; ; i ; i Q *.                    ",
"        ^ ; ; i h i h h i ; _ *.=.$.=.$.          ",
"        ^ u e c i ; h i c h h ^ Q Q Q g ^         ",
"        H + ; c i N i h N h h h p h p ; +         ",
"        ^ + h ; ; i p h p h h h ; h N h ;         ",
"        ^ e c c ; ; h ; ; h e u ; N p h X         ",
"        H + e e ; i p h p ; ; i e ; e & X         ",
"        H ; e c p ; h p h e u ; e u e & X         ",
"        H e e e N N u N N N ; i i ; u e X         ",
"        E e e N u B u u u N p ; i p u u X         ",
"        E u ] #.) } | O.' p h i p ; u u .         ",
"        H (               ^ + e h ; ; X V         ",
"        ^ ^               $.) ` ' ' ' |           ",
"        H (                                       ",
"        E G                                       ",
"        E H                                       ",
"        V G                                       ",
"        C C                                       ",
"                                                  ",
"                                                  ",
"                                                  "
};
