/* XPM */
static char *result[] = {
/* columns rows colors chars-per-pixel */
"53 40 121 2 ",
"   c black",
".  c #0D0000",
"X  c #160000",
"o  c #260000",
"O  c #2A0000",
"+  c #2E0000",
"@  c #320000",
"#  c #350000",
"$  c #3B0000",
"%  c #3D0000",
"&  c #400000",
"*  c #420000",
"=  c #450000",
"-  c #470000",
";  c #490000",
":  c #4B0000",
">  c #510000",
",  c #530000",
"<  c #550000",
"1  c #560000",
"2  c #580000",
"3  c #5A0000",
"4  c #5C0000",
"5  c #600000",
"6  c #620000",
"7  c #630000",
"8  c #6A0000",
"9  c #6C0000",
"0  c #6D0000",
"q  c #710000",
"w  c #730000",
"e  c #750000",
"r  c #760000",
"t  c #770000",
"y  c #780000",
"u  c #790000",
"i  c #7A0000",
"p  c #7C0000",
"a  c #800000",
"s  c #8A0000",
"d  c #8D0000",
"f  c #8E0000",
"g  c #8F0000",
"h  c #900000",
"j  c #910000",
"k  c #930000",
"l  c #940000",
"z  c #950000",
"x  c #990000",
"c  c #9A0000",
"v  c #9B0000",
"b  c #9F0000",
"n  c #A10000",
"m  c #A30000",
"M  c #A40000",
"N  c #A50000",
"B  c #A70000",
"V  c #A80000",
"C  c #AA0000",
"Z  c #AB0000",
"A  c #AD0000",
"S  c #AE0000",
"D  c #B00000",
"F  c #B40000",
"G  c #B60000",
"H  c #B70000",
"J  c #BB0000",
"K  c #BC0000",
"L  c #BD0000",
"P  c #C00000",
"I  c #C20000",
"U  c #C30000",
"Y  c #C40000",
"T  c #C50000",
"R  c #C60000",
"E  c #C70000",
"W  c #C80000",
"Q  c #C90000",
"!  c #CA0000",
"~  c #CB0000",
"^  c #CC0000",
"/  c #CD0000",
"(  c #CE0000",
")  c #CF0000",
"_  c #D00000",
"`  c #D40000",
"'  c #D50000",
"]  c #D60000",
"[  c #D70000",
"{  c #D80000",
"}  c #DA0000",
"|  c #DB0000",
" . c #DC0000",
".. c #DD0000",
"X. c #E20000",
"o. c #E40000",
"O. c #E50000",
"+. c #E60000",
"@. c #E80000",
"#. c #E90000",
"$. c #EA0000",
"%. c #EB0000",
"&. c #EC0000",
"*. c #ED0000",
"=. c #EF0000",
"-. c #F00000",
";. c #F10000",
":. c #F20000",
">. c #F30000",
",. c #F40000",
"<. c #F50000",
"1. c #F60000",
"2. c #F70000",
"3. c #F80000",
"4. c #F90000",
"5. c #FA0000",
"6. c #FB0000",
"7. c #FC0000",
"8. c #FD0000",
"9. c #FE0000",
"0. c red",
/* pixels */
"                                                                                                          ",
"                                                                                                          ",
"                                                                                                          ",
"          Q 0.|               n 0.;.%       t ( -.6.3.+.G $           V 0.K             - 0.*.            ",
"          & ;.0.c           = ,.0.g       J 9.0.0.0.0.0.0.:.t         V 0.K             - 0.*.            ",
"            j 0.:.%         W 0.)       H 0.9.R t @ ; l +.0.2.5       V 0.K             - 0.*.            ",
"              _ 0.Y       i 9.,.;     9 9.9.l           o { 0.|       V 0.K             - 0.*.            ",
"              : <.8.e   X +.0.c       W 0.W               = 3.0.0     V 0.K             - 0.*.            ",
"                v 0.o.. Z 0.]         *.0.e                 ^ 0.A     V 0.K             - 0.*.            ",
"                  [ 0.H 2.2.<       . 9.7..                 C 0.R     V 0.K             - 0.*.            ",
"                  1 2.0.0.m         $ 0.1.                  b 0.)     V 0.K             - 0.*.            ",
"                    A 0.X.          . 9.7..                 C 0.R     B 0.L             : 0.*.            ",
"                    j 0._             *.0.e                 ^ 0.A     b 0.T             7 0.#.            ",
"                    j 0._             E 0.W               = 3.0.0     s 0.|             g 0...            ",
"                    j 0._             8 9.9.l           o { 0. .      > 0.6.<           _ 0.I             ",
"                    j 0._               G 0.8.Y w + - z +.0.2.7         } 0.*.x 2 $ r / 0.9.t             ",
"                    j 0._                 J 9.0.0.0.0.0.0.>.u           4 -.0.0.0.0.0.0.0.F               ",
"                    j 0._                   y ( -.7.4.+.G %               , Y &.6.7.:.' s                 ",
"                                                                                                          ",
"                                                                                                          ",
"                                                                                                          ",
"                                                                                                          ",
"  V 0.K                       t ( -.6.3.+.G $               x ..1.9.2.X.S O     R 0.0.0.0.0.0.0.0.0.0.O.  ",
"  V 0.K                     J 9.0.0.0.0.0.0.:.t           W 0.0.0.0.0.0.0.@.;   R 0.0.0.0.0.0.0.0.0.0.O.  ",
"  V 0.K                   H 0.9.R t @ ; l +.0.2.5       d 0.2.B 3 O > k #.0.Q             =.0.%           ",
"  V 0.K                 9 9.9.l           o { 0.|       Y 0.M           , 8.>.            =.0.%           ",
"  V 0.K                 W 0.W               = 3.0.0     T 0.C                             =.0.%           ",
"  V 0.K                 *.0.e                 ^ 0.A     h 0.3.D 1                         =.0.%           ",
"  V 0.K               . 9.7..                 C 0.R       P 0.0.0.&.! v $                 =.0.%           ",
"  V 0.K               $ 0.1.                  b 0.)         t ! ;.0.0.0.5.K X             =.0.%           ",
"  V 0.K               . 9.7..                 C 0.R               6 N { 9.0.~             =.0.%           ",
"  V 0.K                 *.0.e                 ^ 0.A                     q 1.0.5           =.0.%           ",
"  V 0.K                 E 0.W               = 3.0.0   # 0.$.              ~ 0.f           =.0.%           ",
"  V 0.K                 8 9.9.l           o { 0. .      %.0.f             X.0.p           =.0.%           ",
"  V 0.K                   G 0.8.Y w + - z +.0.2.7       N 0.6.U t % * a ` 0.&..           =.0.%           ",
"  V 0.0.0.0.0.0.0.0.F       J 9.0.0.0.0.0.0.>.u           E 0.0.0.0.0.0.0.<.e             =.0.%           ",
"  V 0.0.0.0.0.0.0.0.F         y ( -.7.4.+.G %               g ' ;.7.7.*.I >               =.0.%           ",
"                                                                                                          ",
"                                                                                                          ",
"                                                                                                          "
};
