/* XPM */
static char *result[] = {
/* columns rows colors chars-per-pixel */
"50 40 144 2 ",
"   c black",
".  c #000600",
"X  c #030B00",
"o  c #000D00",
"O  c #021002",
"+  c #021202",
"@  c #011401",
"#  c #011701",
"$  c #021602",
"%  c #041A01",
"&  c #041B01",
"*  c #031C01",
"=  c #031E01",
"-  c #031F03",
";  c #032003",
":  c #032203",
">  c #062103",
",  c #052303",
"<  c #052502",
"1  c #052403",
"2  c #052602",
"3  c #042702",
"4  c #052802",
"5  c #072904",
"6  c #072A04",
"7  c #062B04",
"8  c #072B04",
"9  c #062C04",
"0  c #062D04",
"q  c #062F04",
"w  c #092E04",
"e  c #092F04",
"r  c #083306",
"t  c #083505",
"y  c #0A3405",
"u  c #0A3905",
"i  c #093807",
"p  c #093A07",
"a  c #0B3A07",
"s  c #0B3B07",
"d  c #0C3907",
"f  c #0B3C06",
"g  c #0B3D06",
"h  c #0B3D07",
"j  c #0E4207",
"k  c #0D4008",
"l  c #0C4108",
"z  c #0F4108",
"x  c #0E4309",
"c  c #0F4609",
"v  c #0F4709",
"b  c #0F4809",
"n  c #0F490B",
"m  c #104609",
"M  c #104B0A",
"N  c #114B0A",
"B  c #114A0B",
"V  c #104D0A",
"C  c #114C0B",
"Z  c #124C0A",
"A  c #114D0C",
"S  c #114E0C",
"D  c #124E0C",
"F  c #13510B",
"G  c #12510D",
"H  c #13520C",
"J  c #12530D",
"K  c #14530D",
"L  c #14540D",
"P  c #15550E",
"I  c #15560E",
"U  c #15570E",
"Y  c #16590E",
"T  c #155A0E",
"R  c #175B0F",
"E  c #165C0F",
"W  c #175C0F",
"Q  c #175D0F",
"!  c #165D10",
"~  c #175E10",
"^  c #175F10",
"/  c #185F10",
"(  c #176010",
")  c #186011",
"_  c #186111",
"`  c #196210",
"'  c #186211",
"]  c #196311",
"[  c #1A6211",
"{  c #196411",
"}  c #196711",
"|  c #196412",
" . c #1A6512",
".. c #1A6612",
"X. c #1A6712",
"o. c #1B6812",
"O. c #1B6813",
"+. c #1B6913",
"@. c #1B6A12",
"#. c #1A6A13",
"$. c #1B6B13",
"%. c #1C6913",
"&. c #1C6B13",
"*. c #1C6D13",
"=. c #1C6C14",
"-. c #1D6D14",
";. c #1C6D15",
":. c #1D6E14",
">. c #1C6F15",
",. c #1D6F15",
"<. c #1D6F16",
"1. c #1E7014",
"2. c #1E7115",
"3. c #1E7215",
"4. c #1E7315",
"5. c #1F7315",
"6. c #1E7316",
"7. c #1F7316",
"8. c #1F7515",
"9. c #1F7416",
"0. c #1F7616",
"q. c #207616",
"w. c #207617",
"e. c #207717",
"r. c #207817",
"t. c #217817",
"y. c #207917",
"u. c #217917",
"i. c #207818",
"p. c #217A18",
"a. c #217B18",
"s. c #207C18",
"d. c #217C18",
"f. c #217C19",
"g. c #227C18",
"h. c #227D18",
"j. c #227E19",
"k. c #227F19",
"l. c #237F19",
"z. c #238019",
"x. c #238119",
"c. c #23811A",
"v. c #24821A",
"b. c #24831A",
/* pixels */
"                                                                                                    ",
"                                                                                                    ",
"                                                                                                    ",
"        X.b.1.              F b.a.%       d +.a.x.l.8.E &           K b./             - b.y.        ",
"        = d.b.Z           ; h.b.v       ~ b.b.b.b.b.b.b.g.d         K b./             - b.y.        ",
"          b b.g.%         ..b.#.      W b.v.| d @ : B 8.b.k.9       K b./             - b.y.        ",
"            @.b.]       h b.h.:     t v.b.B           + :.b.1.      K b./             - b.y.        ",
"            > h.v.i   . 8.b.Z       ..b...              ; l.b.y     K b./             - b.y.        ",
"              A b.9.o P b.*.        y.b.i                 o.b.U     K b./             - b.y.        ",
"                ;.b.W l.k.4       o v.v.o                 P b.|     K b./             - b.y.        ",
"                3 l.b.b.H         & b.j.                  S b.#.    K b./             - b.y.        ",
"                  I b.7.          o v.v.o                 P b.|     K b.(             > b.t.        ",
"                  b b.%.            y.b.i                 o.b.U     S b.{             w b.e.        ",
"                  b b.%.             .b...              ; l.b.y     x b.>.            v b.2.        ",
"                  b b.%.            r v.b.B           + :.b.<.      2 b.x.4           %.b.'         ",
"                  b b.%.              Q b.v.` u $ - M 8.b.l.w         :.b.t.V 6 & p O.b.v.d         ",
"                  b b.%.                ~ b.b.b.b.b.b.b.g.a           8 s.b.b.b.b.b.b.b.R           ",
"                  b b.%.                  s +.s.c.z.w.Q %               < ` y.x.c.g.=.x             ",
"                                                                                                    ",
"                                                                                                    ",
"                                                                                                    ",
"                                                                                                    ",
"  #.b.H           e.b.3.          Y b.`         d +.a.x.l.8.E &           K b.i.+             c.y.  ",
"  F b.O.        1 b.b.c.@         =.b.n       ~ b.b.b.b.b.b.b.g.d         K b.b.!             c.y.  ",
"  3 b.r.        D b.2.b.m         h.v.%     W b.v.| d @ : B 8.b.k.9       K b.b.x.r           c.y.  ",
"    r.b.>       } b.f b.)       e b.6.    t v.b.B           + :.b.1.      K b.9.b.4.          c.y.  ",
"    | b.M       p.q.  f.0.      G b.~     ..b...              ; l.b.y     K b.P 4.b.K         c.y.  ",
"    M b._     q b.'   o.b.:     o.b.k     y.b.i                 o.b.U     K b.P r x.k.2       c.y.  ",
"    * v.9.    L b.m   D b.Z     y.z.X   o v.v.o                 P b.|     K b.P   Q b.&.      c.y.  ",
"      9.v.@   $.x.@   , b.X.  > b.,.    & b.j.                  S b.#.    K b.P   + r.b.c     c.y.  ",
"      ^ b.z   h.5.      e.y.  N b.T     o v.v.o                 P b.|     K b.P     k b.a.#   c.y.  ",
"      j b.W i b.W       ] b.7 ' b.u       y.b.i                 o.b.U     K b.P       ..b.[   c.y.  ",
"      O x.>.T b.g       b b.J 9.h.         .b...              ; l.b.y     K b.P       = g.v.a c.y.  ",
"        2.l.1.l..       & v.=.c.&.        r v.b.B           + :.b.<.      K b.P         C b.q.v.y.  ",
"        R b.v.;.          7.v.b.K           Q b.v.` u $ - M 8.b.l.w       K b.P           -.b.b.y.  ",
"        a b.b.I           ^ b.b.0             ~ b.b.b.b.b.b.b.g.a         K b.P           5 z.b.y.  ",
"        o j.b.r           l b.u.                s +.s.c.z.w.Q %           K b.P             I b.y.  ",
"                                                                                                    ",
"                                                                                                    ",
"                                                                                                    "
};
