/* XPM */
static char *_932216e4b0d4fe8c729790eba7a95e5V3I2btzvGyOEx3Xl[] = {
/* columns rows colors chars-per-pixel */
"25 25 31 1 ",
"  c None",
". c black",
"X c #171816",
"o c #191B18",
"O c #1A1B19",
"+ c #1B1C1A",
"@ c #1B1D1A",
"# c #222421",
"$ c #292B28",
"% c #2D2F2B",
"& c #2E302C",
"* c #30322E",
"= c #31332F",
"- c #31342F",
"; c #333531",
": c #343632",
"> c #484C46",
", c #494C46",
"< c #4A4D47",
"1 c #4B4F49",
"2 c #52554F",
"3 c #535750",
"4 c #545851",
"5 c #555852",
"6 c #565A53",
"7 c #575B54",
"8 c #585C55",
"9 c #585C56",
"0 c #595D57",
"q c #5C6059",
"w c #5D615A",
/* pixels */
"                         ",
"                         ",
"     wwwwwwwwwwwwwww     ",
"    wwwwwwwwwwwwwwwww    ",
"   wwwwwwwwwwwwww=050w   ",
"  wwwwwwwwwwwww-3&6X3ww  ",
"  wwwwwwwwwwwww26w62www  ",
"  wwwwwwwwwww0>02;w==ww  ",
"  wwwwww>;@o=#.#o3730ww  ",
"  wwww0&........#03%www  ",
"  wwww&.@10&.....>wwwww  ",
"  www>.+0>$.....#0wwwww  ",
"  www;.1>.......=wwwwww  ",
"  www+.0$.......owwwwww  ",
"  www+.=........@wwwwww  ",
"  www;..........;wwwwww  ",
"  www>..........>wwwwww  ",
"  wwww&........*wwwwwww  ",
"  wwww0%......=0wwwwwww  ",
"  wwwwww>;@@;>0wwwwwwww  ",
"   wwwwwwwwwwwwwwwwwww   ",
"    wwwwwwwwwwwwwwwww    ",
"     wwwwwwwwwwwwwww     ",
"                         ",
"                         "
};
