/* XPM */
static char *ce3b520b55c749e5afe5b25f9a348f6coxHwB3ck6KGnL1hf[] = {
/* columns rows colors chars-per-pixel */
"25 25 76 1 ",
"  c None",
". c black",
"X c #010201",
"o c gray1",
"O c #040504",
"+ c #060605",
"@ c #070807",
"# c #080908",
"$ c #0A0B09",
"% c #0B0C0B",
"& c #0D0E0C",
"* c #10110F",
"= c #121311",
"- c #131412",
"; c #141513",
": c #161815",
"> c #171816",
", c #181917",
"< c #1D1E1B",
"1 c #1E201D",
"2 c #222421",
"3 c #232522",
"4 c #242623",
"5 c #252724",
"6 c #262824",
"7 c #272925",
"8 c #272926",
"9 c #2A2C28",
"0 c #2D302C",
"q c #2E302C",
"w c #2F322E",
"e c #30322E",
"r c #31332F",
"t c #323530",
"y c #353733",
"u c #353833",
"i c #363834",
"p c #373A35",
"a c #383A36",
"s c #3C3F3A",
"d c #3D403B",
"f c #3E403C",
"g c #3F423D",
"h c #40433D",
"j c #40433E",
"k c #424540",
"l c #434641",
"z c #454843",
"x c #464943",
"c c #464944",
"v c #474A44",
"b c #474A45",
"n c #484B45",
"m c #494D47",
"M c #4A4D47",
"N c #4A4D48",
"B c #4B4E48",
"V c #4B4F49",
"C c #4E514B",
"Z c #4E524C",
"A c #4F524C",
"S c #50534D",
"D c #52564F",
"F c #525650",
"G c #535650",
"H c #535750",
"J c #545851",
"K c #545852",
"L c #555952",
"P c #565A53",
"I c #585C55",
"U c #5A5D57",
"Y c #5A5E57",
"T c #5B5F58",
"R c #5C6059",
"E c #5D615A",
/* pixels */
"                         ",
"                         ",
"     EEEEEEEEEEEEEEE     ",
"    EEEEEEEEEEEEEEEEE    ",
"   EEEEEEEEEEEEEEJfEEE   ",
"  EEEEELnlkcBZZBf<jEEEE  ",
"  EEYTk=OOO@$&&$O.BEEEE  ",
"  EE5z:...........PEEEE  ",
"  EE0it..........4YEEEE  ",
"  EEz:M..........0TEEEE  ",
"  EEL@M-.........=fTEEE  ",
"  EEY6ar..........O9GEE  ",
"  EEEi1j............0EE  ",
"  EEEc:j=.@%&$@$O@&rPEE  ",
"  EEEL;s3yBGKGZncBGEEEE  ",
"  EEEE4iZTEEEEEEEEEEEEE  ",
"  EEEEh3IEEEEEEEEEEEEEE  ",
"  EEEEG.GEEEEEEEEEEEEEE  ",
"  EEEEY<kEEEEEEEEEEEEEE  ",
"  EEEETa7EEEEEEEEEEEEEE  ",
"   EEEEB7EEEEEEEEEEEEE   ",
"    EEEEEEEEEEEEEEEEE    ",
"     EEEEEEEEEEEEEEE     ",
"                         ",
"                         "
};
