/* XPM */
static char *f51a543b98cc4ad4ac086e79f57caa25s675yxtMEBcQwQ5X[] = {
/* columns rows colors chars-per-pixel */
"25 3 2 1 ",
"  c None",
". c #7F27AC",
/* pixels */
"   ...................   ",
"   ...................   ",
"   ...................   "
};
