/* XPM */
static char *result[] = {
/* columns rows colors chars-per-pixel */
"25 4 2 1 ",
"  c #4A215F",
". c None",
/* pixels */
".........................",
"....                 ....",
"....                 ....",
"........................."
};
