/* XPM */
static char *result[] = {
/* columns rows colors chars-per-pixel */
"24 40 18 1 ",
"  c black",
". c #2E0000",
"X c #470000",
"o c #5C0000",
"O c #5F0000",
"+ c #6A0000",
"@ c #6D0000",
"# c #940000",
"$ c #9B0000",
"% c #AA0000",
"& c #AE0000",
"* c #B60000",
"= c #B80000",
"- c #EE0000",
"; c #EF0000",
": c #F30000",
"> c #F40000",
", c red",
/* pixels */
"                        ",
"                        ",
"                        ",
"                        ",
"                        ",
"                        ",
"                        ",
"                        ",
"                        ",
"                        ",
"                        ",
"                        ",
"                        ",
"                        ",
"                        ",
"                        ",
"                        ",
"        #&&&&&&&$       ",
"       %,,,,,,,,,=      ",
"      %,,,,,,,,,,,*     ",
"     .-,,,,,,,,,,,:X    ",
"      o;,,,,,,,,,:+     ",
"       O;,,,,,,,>@      ",
"                        ",
"                        ",
"                        ",
"                        ",
"                        ",
"                        ",
"                        ",
"                        ",
"                        ",
"                        ",
"                        ",
"                        ",
"                        ",
"                        ",
"                        ",
"                        ",
"                        "
};
