/* XPM */
static char *result[] = {
/* columns rows colors chars-per-pixel */
"24 40 55 1 ",
"  c black",
". c #0D0000",
"X c #2A0000",
"o c #2E0000",
"O c #320000",
"+ c #3B0000",
"@ c #3D0000",
"# c #400000",
"$ c #420000",
"% c #4F0000",
"& c #530000",
"* c #580000",
"= c #6D0000",
"- c #760000",
"; c #770000",
": c #780000",
"> c #7A0000",
", c #7E0000",
"< c #7F0000",
"1 c #840000",
"2 c #860000",
"3 c #880000",
"4 c #970000",
"5 c #A30000",
"6 c #A40000",
"7 c #A50000",
"8 c #AD0000",
"9 c #AE0000",
"0 c #AF0000",
"q c #B10000",
"w c #B20000",
"e c #B30000",
"r c #B40000",
"t c #B50000",
"y c #B60000",
"u c #BF0000",
"i c #C00000",
"p c #C50000",
"a c #C70000",
"s c #C80000",
"d c #DA0000",
"f c #DB0000",
"g c #DC0000",
"h c #DD0000",
"j c #E20000",
"k c #E30000",
"l c #E40000",
"z c #E50000",
"x c #F60000",
"c c #F70000",
"v c #F80000",
"b c #F90000",
"n c #FA0000",
"m c #FB0000",
"M c red",
/* pixels */
"                        ",
"    tMMMMMMMMMMMMMz$    ",
"   *bMMMMMMMMMMMMMM8    ",
"  & 1nMMMMMMMMMMMMp O#  ",
" wc> 2nMMMMMMMMMMa Ohk@ ",
" MMc: 3mMMMMMMMMs ogMM6 ",
" MMMx- <99999995.XfMMM7 ",
" MMMMx=          dMMMM7 ",
" MMMMM7          MMMMM7 ",
" MMMMM7          MMMMM7 ",
" MMMMM7          MMMMM7 ",
" MMMMM7          MMMMM7 ",
" MMMMM7          MMMMM7 ",
" MMMMM7          MMMMM7 ",
" MMMMM7          MMMMM7 ",
" MMMMM6          MMMMM7 ",
" MMMMj+          0MMMM7 ",
" MMMk@            wMMM7 ",
" vMl#              rMM4 ",
" <h$                yi  ",
" ,h$                tu  ",
" vMl#              eMM4 ",
" MMMk@            qMMM7 ",
" MMMMj+          0MMMM7 ",
" MMMMM6          MMMMM7 ",
" MMMMM7          MMMMM7 ",
" MMMMM7          MMMMM7 ",
" MMMMM7          MMMMM7 ",
" MMMMM7          MMMMM7 ",
" MMMMM7          MMMMM7 ",
" MMMMM7          MMMMM7 ",
" MMMMM7          MMMMM7 ",
" MMMMx=          dMMMM7 ",
" MMMx- <99999995 XfMMM7 ",
" MMx; 3mMMMMMMMMs ofMM6 ",
" wc: 2nMMMMMMMMMMa ogk@ ",
"  % 1nMMMMMMMMMMMMp O@  ",
"   *bMMMMMMMMMMMMMM8    ",
"    yMMMMMMMMMMMMMz$    ",
"                        "
};
