/* XPM */
static char *result[] = {
/* columns rows colors chars-per-pixel */
"24 40 24 1 ",
"  c black",
". c #2A0000",
"X c #2E0000",
"o c #320000",
"O c #3B0000",
"+ c #3D0000",
"@ c #400000",
"# c #970000",
"$ c #A40000",
"% c #A50000",
"& c #AF0000",
"* c #B20000",
"= c #B30000",
"- c #B40000",
"; c #B60000",
": c #BF0000",
"> c #C00000",
", c #DA0000",
"< c #DB0000",
"1 c #DC0000",
"2 c #DD0000",
"3 c #E20000",
"4 c #E30000",
"5 c red",
/* pixels */
"                        ",
"                        ",
"                        ",
"                    o@  ",
"                   o24+ ",
"                  X155$ ",
"                 .<555% ",
"                 ,5555% ",
"                 55555% ",
"                 55555% ",
"                 55555% ",
"                 55555% ",
"                 55555% ",
"                 55555% ",
"                 55555% ",
"                 55555% ",
"                 &5555% ",
"                  *555% ",
"                   -55# ",
"                    ;>  ",
"                    ;:  ",
"                   -55# ",
"                  =555% ",
"                 *5555% ",
"                 55555% ",
"                 55555% ",
"                 55555% ",
"                 55555% ",
"                 55555% ",
"                 55555% ",
"                 55555% ",
"                 55555% ",
"                 ,5555% ",
"                 .<555% ",
"                  X<55$ ",
"                   X13O ",
"                    o+  ",
"                        ",
"                        ",
"                        "
};
