/* XPM */
static char *result[] = {
/* columns rows colors chars-per-pixel */
"24 40 51 1 ",
"  c black",
". c #0D0000",
"X c #320000",
"o c #380000",
"O c #3D0000",
"+ c #400000",
"@ c #420000",
"# c #4F0000",
"$ c #530000",
"% c #580000",
"& c #600000",
"* c #690000",
"= c #720000",
"- c #750000",
"; c #760000",
": c #770000",
"> c #790000",
", c #7D0000",
"< c #7F0000",
"1 c #810000",
"2 c #830000",
"3 c #840000",
"4 c #860000",
"5 c #880000",
"6 c #8D0000",
"7 c #A30000",
"8 c #A40000",
"9 c #A50000",
"0 c #AD0000",
"q c #AE0000",
"w c #B20000",
"e c #B50000",
"r c #B60000",
"t c #C50000",
"y c #C70000",
"u c #C80000",
"i c #DA0000",
"p c #DD0000",
"a c #DE0000",
"s c #E00000",
"d c #E10000",
"f c #E30000",
"g c #E50000",
"h c #F50000",
"j c #F60000",
"k c #F70000",
"l c #F80000",
"z c #F90000",
"x c #FA0000",
"c c #FB0000",
"v c red",
/* pixels */
"                        ",
"    evvvvvvvvvvvvvg@    ",
"   %zvvvvvvvvvvvvvv0    ",
"    3xvvvvvvvvvvvvt X+  ",
"     4xvvvvvvvvvvy XafO ",
"      5cvvvvvvvvu Xpvv8 ",
"       <qqqqqqq7.Xpvvv9 ",
"                 pvvvv9 ",
"                 vvvvv9 ",
"                 vvvvv9 ",
"                 vvvvv9 ",
"                 vvvvv9 ",
"                 vvvvv9 ",
"                 vvvvv9 ",
"                 vvvvv9 ",
"                 zvvvv9 ",
"                 2zvvv9 ",
"      odvvvvvvvz1 2zvv9 ",
"     osvvvvvvvvvz< 2zc, ",
"  $  ivvvvvvvvvvvl& 26  ",
" wk> 4xvvvvvvvvvvt      ",
" vvj; 5cvvvvvvvvu       ",
" vvvj= <qqqqqqq7        ",
" vvvvh*                 ",
" vvvvv9                 ",
" vvvvv9                 ",
" vvvvv9                 ",
" vvvvv9                 ",
" vvvvv9                 ",
" vvvvv9                 ",
" vvvvv9                 ",
" vvvvv9                 ",
" vvvvh*                 ",
" vvvj= <qqqqqqq7        ",
" vvj- 5cvvvvvvvvu       ",
" wj: 4xvvvvvvvvvvy      ",
"  # 3xvvvvvvvvvvvvt     ",
"   %zvvvvvvvvvvvvvv0    ",
"    rvvvvvvvvvvvvvg@    ",
"                        "
};
