/* XPM */
static char *result[] = {
/* columns rows colors chars-per-pixel */
"24 40 48 1 ",
"  c black",
". c #0D0000",
"X c #260000",
"o c #2A0000",
"O c #2E0000",
"+ c #320000",
"@ c #3D0000",
"# c #400000",
"$ c #420000",
"% c #4B0000",
"& c #4D0000",
"* c #5F0000",
"= c #750000",
"- c #7D0000",
"; c #7E0000",
": c #7F0000",
"> c #830000",
", c #890000",
"< c #8C0000",
"1 c #970000",
"2 c #980000",
"3 c #990000",
"4 c #9A0000",
"5 c #9B0000",
"6 c #A20000",
"7 c #A40000",
"8 c #A50000",
"9 c #AD0000",
"0 c #AE0000",
"q c #C40000",
"w c #C50000",
"e c #C60000",
"r c #C70000",
"t c #D70000",
"y c #D80000",
"u c #DA0000",
"i c #DB0000",
"p c #DC0000",
"a c #DD0000",
"s c #DE0000",
"d c #E30000",
"f c #E50000",
"g c #E90000",
"h c #F80000",
"j c #F90000",
"k c #FB0000",
"l c #FD0000",
"z c red",
/* pixels */
"                        ",
"    rzzzzzzzzzzzzzf$    ",
"   =lzzzzzzzzzzzzzz9    ",
"    2lzzzzzzzzzzzzw +#  ",
"     3lzzzzzzzzzzw +sd@ ",
"      5lzzzzzzzzr +azz7 ",
"       ,00000006 +azzz8 ",
"                 azzzz8 ",
"                 zzzzz8 ",
"                 zzzzz8 ",
"                 zzzzz8 ",
"                 zzzzz8 ",
"                 zzzzz8 ",
"                 zzzzz8 ",
"                 zzzzz8 ",
"                 jzzzz8 ",
"                 >jzzz8 ",
"      &gzzzzzzzh: >jzz8 ",
"     %gzzzzzzzzzh; >jk- ",
"    .fzzzzzzzzzzzh* <3  ",
"     2lzzzzzzzzzzw Oad@ ",
"      4lzzzzzzzze oizz7 ",
"       ,00000006 Xyzzz8 ",
"                 tzzzz8 ",
"                 zzzzz8 ",
"                 zzzzz8 ",
"                 zzzzz8 ",
"                 zzzzz8 ",
"                 zzzzz8 ",
"                 zzzzz8 ",
"                 zzzzz8 ",
"                 zzzzz8 ",
"                 tzzzz8 ",
"       ,00000006 Xyzzz8 ",
"      4lzzzzzzzzr ouzz7 ",
"     3lzzzzzzzzzzw opd@ ",
"    1lzzzzzzzzzzzzq O@  ",
"   =lzzzzzzzzzzzzzz9    ",
"    rzzzzzzzzzzzzzf$    ",
"                        "
};
