/* XPM */
static char *result[] = {
/* columns rows colors chars-per-pixel */
"24 40 62 1 ",
"  c black",
". c #2A0000",
"X c #2E0000",
"o c #350000",
"O c #380000",
"+ c #3B0000",
"@ c #3D0000",
"# c #400000",
"$ c #420000",
"% c #4F0000",
"& c #600000",
"* c #630000",
"= c #650000",
"- c #660000",
"; c #680000",
": c #6A0000",
"> c #6D0000",
", c #730000",
"< c #760000",
"1 c #770000",
"2 c #780000",
"3 c #7D0000",
"4 c #7E0000",
"5 c #7F0000",
"6 c #800000",
"7 c #820000",
"8 c #830000",
"9 c #880000",
"0 c #890000",
"q c #8C0000",
"w c #970000",
"e c #9A0000",
"r c #A30000",
"t c #A40000",
"y c #A50000",
"u c #AE0000",
"i c #AF0000",
"p c #B10000",
"a c #B20000",
"s c #B30000",
"d c #B50000",
"f c #BF0000",
"g c #C70000",
"h c #C80000",
"j c #D80000",
"k c #DA0000",
"l c #DB0000",
"z c #DC0000",
"x c #DD0000",
"c c #E00000",
"v c #E10000",
"b c #E20000",
"n c #E30000",
"m c #E40000",
"M c #F10000",
"N c #F20000",
"B c #F60000",
"V c #F70000",
"C c #F80000",
"Z c #F90000",
"A c #FB0000",
"S c red",
/* pixels */
"                        ",
"                        ",
"                        ",
"                        ",
" 4x$                df  ",
" CSm#              sSSw ",
" SSSn@            pSSSy ",
" SSSSb+          iSSSSy ",
" SSSSSt          SSSSSy ",
" SSSSSy          SSSSSy ",
" SSSSSy          SSSSSy ",
" SSSSSy          SSSSSy ",
" SSSSSy          SSSSSy ",
" SSSSSy          SSSSSy ",
" SSSSSy          SSSSSy ",
" SSSSSy          SSSSSy ",
" SSSSB>          kSSSSy ",
" SSSB< 5uuuuuuur .lSSSy ",
" SSB1 0ASSSSSSSSh XlSSt ",
" aV2 9ASSSSSSSSSSg Xzn@ ",
"  %  jSSSSSSSSSSSV& qe  ",
"     ocSSSSSSSSSC4 8ZA3 ",
"      OvSSSSSSSZ6 7ZSSy ",
"                 6ZSSSy ",
"                 ZSSSSy ",
"                 SSSSSy ",
"                 SSSSSy ",
"                 SSSSSy ",
"                 SSSSSy ",
"                 SSSSSy ",
"                 SSSSSy ",
"                 SSSSSy ",
"                 MSSSSy ",
"                 *MSSSy ",
"                  =NSSy ",
"                   -NB: ",
"                    ;,  ",
"                        ",
"                        ",
"                        "
};
