/* XPM */
static char *result[] = {
/* columns rows colors chars-per-pixel */
"24 40 53 1 ",
"  c black",
". c #0D0000",
"X c #260000",
"o c #2A0000",
"O c #2E0000",
"+ c #320000",
"@ c #380000",
"# c #3D0000",
"$ c #400000",
"% c #420000",
"& c #470000",
"* c #530000",
"= c #580000",
"- c #600000",
"; c #710000",
": c #7A0000",
"> c #7C0000",
", c #7F0000",
"< c #810000",
"1 c #840000",
"2 c #860000",
"3 c #880000",
"4 c #9A0000",
"5 c #A30000",
"6 c #A40000",
"7 c #A50000",
"8 c #AD0000",
"9 c #AE0000",
"0 c #AF0000",
"q c #B20000",
"w c #B50000",
"e c #B60000",
"r c #C30000",
"t c #C50000",
"y c #C70000",
"u c #C80000",
"i c #D70000",
"p c #D80000",
"a c #DA0000",
"s c #DB0000",
"d c #DC0000",
"f c #DD0000",
"g c #E00000",
"h c #E10000",
"j c #E30000",
"k c #E50000",
"l c #E70000",
"z c #F70000",
"x c #F80000",
"c c #F90000",
"v c #FA0000",
"b c #FB0000",
"n c red",
/* pixels */
"                        ",
"    wnnnnnnnnnnnnnk%    ",
"   =cnnnnnnnnnnnnnn8    ",
"  * 1vnnnnnnnnnnnnt     ",
" qz> 2vnnnnnnnnnny      ",
" nnz: 3bnnnnnnnnu       ",
" nnnz: ,99999995.       ",
" nnnnz;                 ",
" nnnnn7                 ",
" nnnnn7                 ",
" nnnnn7                 ",
" nnnnn7                 ",
" nnnnn7                 ",
" nnnnn7                 ",
" nnnnn7                 ",
" nnnnn4                 ",
" nnnnr                  ",
" nnnr @hnnnnnnnc<       ",
" lnr @gnnnnnnnnnc,      ",
" &0  annnnnnnnnnnx- +$  ",
"     2vnnnnnnnnnnt Ofj# ",
"      3bnnnnnnnnu osnn6 ",
"       ,99999995 Xpnnn7 ",
"                 innnn7 ",
"                 nnnnn7 ",
"                 nnnnn7 ",
"                 nnnnn7 ",
"                 nnnnn7 ",
"                 nnnnn7 ",
"                 nnnnn7 ",
"                 nnnnn7 ",
"                 nnnnn7 ",
"                 innnn7 ",
"       ,99999995 Xpnnn7 ",
"      3bnnnnnnnnu oann6 ",
"     2vnnnnnnnnnny odj# ",
"    1vnnnnnnnnnnnnt O#  ",
"   =cnnnnnnnnnnnnnn8    ",
"    ennnnnnnnnnnnnk%    ",
"                        "
};
