/* XPM */
static char *result[] = {
/* columns rows colors chars-per-pixel */
"24 40 62 1 ",
"  c black",
". c #0D0000",
"X c #260000",
"o c #2A0000",
"O c #2E0000",
"+ c #320000",
"@ c #380000",
"# c #3D0000",
"$ c #400000",
"% c #420000",
"& c #470000",
"* c #4F0000",
"= c #530000",
"- c #580000",
"; c #600000",
": c #690000",
"> c #710000",
", c #720000",
"< c #750000",
"1 c #760000",
"2 c #770000",
"3 c #790000",
"4 c #7A0000",
"5 c #7C0000",
"6 c #7F0000",
"7 c #810000",
"8 c #840000",
"9 c #860000",
"0 c #880000",
"q c #9A0000",
"w c #A30000",
"e c #A40000",
"r c #A50000",
"t c #AD0000",
"y c #AE0000",
"u c #B20000",
"i c #B50000",
"p c #B60000",
"a c #BE0000",
"s c #C30000",
"d c #C50000",
"f c #C70000",
"g c #C80000",
"h c #D70000",
"j c #D80000",
"k c #DA0000",
"l c #DB0000",
"z c #DC0000",
"x c #DD0000",
"c c #E00000",
"v c #E10000",
"b c #E30000",
"n c #E50000",
"m c #E70000",
"M c #F50000",
"N c #F60000",
"B c #F70000",
"V c #F80000",
"C c #F90000",
"Z c #FA0000",
"A c #FB0000",
"S c red",
/* pixels */
"                        ",
"    iSSSSSSSSSSSSSn%    ",
"   -CSSSSSSSSSSSSSSt    ",
"  = 8ZSSSSSSSSSSSSd     ",
" uB5 9ZSSSSSSSSSSf      ",
" SSB4 0ASSSSSSSSg       ",
" SSSB4 6yyyyyyyw.       ",
" SSSSB>                 ",
" SSSSSr                 ",
" SSSSSr                 ",
" SSSSSr                 ",
" SSSSSr                 ",
" SSSSSr                 ",
" SSSSSr                 ",
" SSSSSr                 ",
" SSSSSq                 ",
" SSSSs                  ",
" SSSs @vSSSSSSSC7       ",
" mSs @cSSSSSSSSSC6      ",
" &a  kSSSSSSSSSSSV; +$  ",
" uB3 9ZSSSSSSSSSSd Oxb# ",
" SSN1 0ASSSSSSSSg olSSe ",
" SSSN, 6yyyyyyyw XjSSSr ",
" SSSSM:          hSSSSr ",
" SSSSSr          SSSSSr ",
" SSSSSr          SSSSSr ",
" SSSSSr          SSSSSr ",
" SSSSSr          SSSSSr ",
" SSSSSr          SSSSSr ",
" SSSSSr          SSSSSr ",
" SSSSSr          SSSSSr ",
" SSSSSr          SSSSSr ",
" SSSSM:          hSSSSr ",
" SSSN, 6yyyyyyyw XjSSSr ",
" SSN< 0ASSSSSSSSg okSSe ",
" uN2 9ZSSSSSSSSSSf ozb# ",
"  * 8ZSSSSSSSSSSSSd O#  ",
"   -CSSSSSSSSSSSSSSt    ",
"    pSSSSSSSSSSSSSn%    ",
"                        "
};
