/* XPM */
static char *result[] = {
/* columns rows colors chars-per-pixel */
"24 40 51 1 ",
"  c black",
". c #0D0000",
"X c #2A0000",
"o c #2E0000",
"O c #320000",
"+ c #3B0000",
"@ c #3D0000",
"# c #400000",
"$ c #420000",
"% c #530000",
"& c #580000",
"* c #6D0000",
"= c #760000",
"- c #780000",
"; c #7A0000",
": c #7F0000",
"> c #840000",
", c #860000",
"< c #880000",
"1 c #970000",
"2 c #A30000",
"3 c #A40000",
"4 c #A50000",
"5 c #AD0000",
"6 c #AE0000",
"7 c #AF0000",
"8 c #B20000",
"9 c #B30000",
"0 c #B40000",
"q c #B50000",
"w c #B60000",
"e c #BF0000",
"r c #C00000",
"t c #C50000",
"y c #C70000",
"u c #C80000",
"i c #DA0000",
"p c #DB0000",
"a c #DC0000",
"s c #DD0000",
"d c #E20000",
"f c #E30000",
"g c #E40000",
"h c #E50000",
"j c #F60000",
"k c #F70000",
"l c #F80000",
"z c #F90000",
"x c #FA0000",
"c c #FB0000",
"v c red",
/* pixels */
"                        ",
"    qvvvvvvvvvvvvvh$    ",
"   &zvvvvvvvvvvvvvv5    ",
"  % >xvvvvvvvvvvvvt O#  ",
" 8k; ,xvvvvvvvvvvy Osf@ ",
" vvk- <cvvvvvvvvu oavv3 ",
" vvvj= :66666662.Xpvvv4 ",
" vvvvj*          ivvvv4 ",
" vvvvv4          vvvvv4 ",
" vvvvv4          vvvvv4 ",
" vvvvv4          vvvvv4 ",
" vvvvv4          vvvvv4 ",
" vvvvv4          vvvvv4 ",
" vvvvv4          vvvvv4 ",
" vvvvv4          vvvvv4 ",
" vvvvv3          vvvvv4 ",
" vvvvd+          7vvvv4 ",
" vvvf@            8vvv4 ",
" lvg#              0vv1 ",
" :s$                wr  ",
"                    we  ",
"                   0vv1 ",
"                  9vvv4 ",
"                 8vvvv4 ",
"                 vvvvv4 ",
"                 vvvvv4 ",
"                 vvvvv4 ",
"                 vvvvv4 ",
"                 vvvvv4 ",
"                 vvvvv4 ",
"                 vvvvv4 ",
"                 vvvvv4 ",
"                 ivvvv4 ",
"                 Xpvvv4 ",
"                  opvv3 ",
"                   oad+ ",
"                    O@  ",
"                        ",
"                        ",
"                        "
};
