/* XPM */
static char *result[] = {
/* columns rows colors chars-per-pixel */
"24 40 67 1 ",
"  c black",
". c #0D0000",
"X c #260000",
"o c #2A0000",
"O c #2E0000",
"+ c #320000",
"@ c #380000",
"# c #3D0000",
"$ c #400000",
"% c #420000",
"& c #470000",
"* c #4F0000",
"= c #530000",
"- c #580000",
"; c #600000",
": c #690000",
"> c #710000",
", c #720000",
"< c #750000",
"1 c #760000",
"2 c #770000",
"3 c #790000",
"4 c #7A0000",
"5 c #7C0000",
"6 c #7D0000",
"7 c #7F0000",
"8 c #810000",
"9 c #830000",
"0 c #840000",
"q c #860000",
"w c #880000",
"e c #8C0000",
"r c #990000",
"t c #9A0000",
"y c #A30000",
"u c #A40000",
"i c #A50000",
"p c #AD0000",
"a c #AE0000",
"s c #B20000",
"d c #B50000",
"f c #B60000",
"g c #BE0000",
"h c #C30000",
"j c #C50000",
"k c #C70000",
"l c #C80000",
"z c #D70000",
"x c #D80000",
"c c #DA0000",
"v c #DB0000",
"b c #DC0000",
"n c #DD0000",
"m c #DE0000",
"M c #E00000",
"N c #E10000",
"B c #E30000",
"V c #E50000",
"C c #E70000",
"Z c #F50000",
"A c #F60000",
"S c #F70000",
"D c #F80000",
"F c #F90000",
"G c #FA0000",
"H c #FB0000",
"J c red",
/* pixels */
"                        ",
"    dJJJJJJJJJJJJJV%    ",
"   -FJJJJJJJJJJJJJJp    ",
"  = 0GJJJJJJJJJJJJj +$  ",
" sS5 qGJJJJJJJJJJk +mB# ",
" JJS4 wHJJJJJJJJl +nJJu ",
" JJJS4 7aaaaaaay.+nJJJi ",
" JJJJS>          nJJJJi ",
" JJJJJi          JJJJJi ",
" JJJJJi          JJJJJi ",
" JJJJJi          JJJJJi ",
" JJJJJi          JJJJJi ",
" JJJJJi          JJJJJi ",
" JJJJJi          JJJJJi ",
" JJJJJi          JJJJJi ",
" JJJJJt          FJJJJi ",
" JJJJh           9FJJJi ",
" JJJh @NJJJJJJJF8 9FJJi ",
" CJh @MJJJJJJJJJF7 9FH6 ",
" &g  cJJJJJJJJJJJD; er  ",
" sS3 qGJJJJJJJJJJj OnB# ",
" JJA1 wHJJJJJJJJl ovJJu ",
" JJJA, 7aaaaaaay XxJJJi ",
" JJJJZ:          zJJJJi ",
" JJJJJi          JJJJJi ",
" JJJJJi          JJJJJi ",
" JJJJJi          JJJJJi ",
" JJJJJi          JJJJJi ",
" JJJJJi          JJJJJi ",
" JJJJJi          JJJJJi ",
" JJJJJi          JJJJJi ",
" JJJJJi          JJJJJi ",
" JJJJZ:          zJJJJi ",
" JJJA, 7aaaaaaay XxJJJi ",
" JJA< wHJJJJJJJJl ocJJu ",
" sA2 qGJJJJJJJJJJk obB# ",
"  * 0GJJJJJJJJJJJJj O#  ",
"   -FJJJJJJJJJJJJJJp    ",
"    fJJJJJJJJJJJJJV%    ",
"                        "
};
