/* XPM */
static char *result[] = {
/* columns rows colors chars-per-pixel */
"24 40 58 1 ",
"  c black",
". c #0D0000",
"X c #260000",
"o c #2A0000",
"O c #2E0000",
"+ c #320000",
"@ c #380000",
"# c #3D0000",
"$ c #400000",
"% c #420000",
"& c #470000",
"* c #530000",
"= c #580000",
"- c #600000",
"; c #710000",
": c #7A0000",
"> c #7C0000",
", c #7D0000",
"< c #7F0000",
"1 c #810000",
"2 c #830000",
"3 c #840000",
"4 c #860000",
"5 c #880000",
"6 c #8C0000",
"7 c #990000",
"8 c #9A0000",
"9 c #A30000",
"0 c #A40000",
"q c #A50000",
"w c #AD0000",
"e c #AE0000",
"r c #AF0000",
"t c #B20000",
"y c #B50000",
"u c #B60000",
"i c #C30000",
"p c #C50000",
"a c #C70000",
"s c #C80000",
"d c #D70000",
"f c #D80000",
"g c #DA0000",
"h c #DB0000",
"j c #DC0000",
"k c #DD0000",
"l c #DE0000",
"z c #E00000",
"x c #E10000",
"c c #E30000",
"v c #E50000",
"b c #E70000",
"n c #F70000",
"m c #F80000",
"M c #F90000",
"N c #FA0000",
"B c #FB0000",
"V c red",
/* pixels */
"                        ",
"    yVVVVVVVVVVVVVv%    ",
"   =MVVVVVVVVVVVVVVw    ",
"  * 3NVVVVVVVVVVVVp +$  ",
" tn> 4NVVVVVVVVVVa +lc# ",
" VVn: 5BVVVVVVVVs +kVV0 ",
" VVVn: <eeeeeee9.+kVVVq ",
" VVVVn;          kVVVVq ",
" VVVVVq          VVVVVq ",
" VVVVVq          VVVVVq ",
" VVVVVq          VVVVVq ",
" VVVVVq          VVVVVq ",
" VVVVVq          VVVVVq ",
" VVVVVq          VVVVVq ",
" VVVVVq          VVVVVq ",
" VVVVV8          MVVVVq ",
" VVVVi           2MVVVq ",
" VVVi @xVVVVVVVM1 2MVVq ",
" bVi @zVVVVVVVVVM< 2MB, ",
" &r  gVVVVVVVVVVVm- 67  ",
"     4NVVVVVVVVVVp Okc# ",
"      5BVVVVVVVVs ohVV0 ",
"       <eeeeeee9 XfVVVq ",
"                 dVVVVq ",
"                 VVVVVq ",
"                 VVVVVq ",
"                 VVVVVq ",
"                 VVVVVq ",
"                 VVVVVq ",
"                 VVVVVq ",
"                 VVVVVq ",
"                 VVVVVq ",
"                 dVVVVq ",
"       <eeeeeee9 XfVVVq ",
"      5BVVVVVVVVs ogVV0 ",
"     4NVVVVVVVVVVa ojc# ",
"    3NVVVVVVVVVVVVp O#  ",
"   =MVVVVVVVVVVVVVVw    ",
"    uVVVVVVVVVVVVVv%    ",
"                        "
};
