/* XPM */
static char *result[] = {
/* columns rows colors chars-per-pixel */
"25 25 11 1 ",
"  c black",
". c #050102",
"X c #0A0103",
"o c #130307",
"O c #150308",
"+ c #411323",
"@ c #541B2F",
"# c #67243B",
"$ c #742944",
"% c #762A44",
"& c #782B46",
/* pixels */
"                         ",
"     XoOOOOOOOOOOOoX     ",
"   .+#$&&&&&&&&&&&$#+.   ",
"  .@%&&&&&&&&&&&&&&&%@.  ",
"  +%&&&&&&&&&&&&&&&&&%+  ",
" X#&&&&&&&&&&&&&&&&&&&#X ",
" o$&&&&&&&&&&&&&&&&&&&$o ",
" O&&&&&&&&&&&&&&&&&&&&&O ",
" O&&&&&&&&&&&&&&&&&&&&&O ",
" O&&&&&&&&&&&&&&&&&&&&&O ",
" O&&&&&&&&&&&&&&&&&&&&&O ",
" O&&&&&&&&&&&&&&&&&&&&&O ",
" O&&&&&&&&&&&&&&&&&&&&&O ",
" O&&&&&&&&&&&&&&&&&&&&&O ",
" O&&&&&&&&&&&&&&&&&&&&&O ",
" O&&&&&&&&&&&&&&&&&&&&&O ",
" O&&&&&&&&&&&&&&&&&&&&&O ",
" O&&&&&&&&&&&&&&&&&&&&&O ",
" o$&&&&&&&&&&&&&&&&&&&$o ",
" X#&&&&&&&&&&&&&&&&&&&#X ",
"  +%&&&&&&&&&&&&&&&&&%+  ",
"  .@%&&&&&&&&&&&&&&&%@.  ",
"   .+#$&&&&&&&&&&&$#+.   ",
"     XoOOOOOOOOOOOoX     ",
"                         "
};
