/* XPM */
static char *_a0f3df72ba24670fdeeb8706ca9c8afFnOewsNKSMhcwaIg[] = {
/* columns rows colors chars-per-pixel */
"25 25 32 1 ",
"  c None",
". c black",
"X c #300C19",
"o c #340E1B",
"O c #350E1C",
"+ c #360F1D",
"@ c #370F1D",
"# c #421424",
"$ c #431425",
"% c #4E192C",
"& c #541C2F",
"* c #561C31",
"= c #571D31",
"- c #591E33",
"; c #5B1F34",
": c #5C1F34",
"> c #5E2036",
", c #602137",
"< c #832F4D",
"1 c #83304D",
"2 c #85304E",
"3 c #883250",
"4 c #923656",
"5 c #943757",
"6 c #963859",
"7 c #973859",
"8 c #99395B",
"9 c #9B3A5C",
"0 c #9D3B5D",
"q c #9F3B5E",
"w c #A43E61",
"e c #A53E62",
/* pixels */
"                         ",
"                         ",
"     eeeeeeeeeeeeeee     ",
"    eeeeeeeeeeeeeeeee    ",
"   eeeeeeeeeeeeee*e69e   ",
"  eeeeeeeeeeeee:6*8X5ee  ",
"  eeeeeeeeeeeee48e84eee  ",
"  eeeeeeeeeeeq<q4,e--ee  ",
"  eeeeee1>@o;#.#@496wee  ",
"  eeee0*........#q4*eee  ",
"  eeee*.@3q*.....1eeeee  ",
"  eee1.@q1%.....#0eeeee  ",
"  eee>.31.......>weeeee  ",
"  eee@.q%.......oeeeeee  ",
"  eee@.*........+eeeeee  ",
"  eee>..........>eeeeee  ",
"  eee1..........1eeeeee  ",
"  eeee-........-eeeeeee  ",
"  eeee0*......*0eeeeeee  ",
"  eeeeee1>++>1eeeeeeeee  ",
"   eeeeeeeeeeeeeeeeeee   ",
"    eeeeeeeeeeeeeeeee    ",
"     eeeeeeeeeeeeeee     ",
"                         ",
"                         "
};
