/* XPM */
static char *d4d51fbdfde748cfbdec12810ff856a9XEvNhLU5s9iNOXiF[] = {
/* columns rows colors chars-per-pixel */
"3 25 2 1 ",
"  c None",
". c #7F27AC",
/* pixels */
"   ",
"   ",
"   ",
"...",
"...",
"...",
"...",
"...",
"...",
"...",
"...",
"...",
"...",
"...",
"...",
"...",
"...",
"...",
"...",
"...",
"...",
"...",
"   ",
"   ",
"   "
};
