/* XPM */
static char *result[] = {
/* columns rows colors chars-per-pixel */
"4 25 2 1 ",
"  c #4A215F",
". c None",
/* pixels */
"....",
"....",
"....",
"....",
".  .",
".  .",
".  .",
".  .",
".  .",
".  .",
".  .",
".  .",
".  .",
".  .",
".  .",
".  .",
".  .",
".  .",
".  .",
".  .",
".  .",
"....",
"....",
"....",
"...."
};
